<svg xmlns="http://www.w3.org/2000/svg" xmlns:xlink="http://www.w3.org/1999/xlink" width="111" zoomAndPan="magnify" viewBox="0 0 83.25 36.000001" height="48" preserveAspectRatio="xMidYMid meet" version="1.0"><defs><g/></defs><g fill="#ff8d55" fill-opacity="0.4"><g transform="translate(14.710802, 15.692141)"><g><path d="M 6.496094 -15.65625 L 1.371094 -15.65625 L 1.371094 0 L 6.496094 0 C 10.628906 0 13.5625 -3.503906 13.5625 -7.828125 C 13.5625 -12.152344 10.511719 -15.65625 6.496094 -15.65625 Z M 6.496094 -12.742188 C 8.828125 -12.742188 10.648438 -10.589844 10.648438 -7.828125 C 10.648438 -6.417969 10.214844 -5.148438 9.394531 -4.226562 C 8.867188 -3.621094 7.945312 -2.917969 6.496094 -2.917969 L 4.285156 -2.917969 L 4.285156 -12.742188 Z M 6.496094 -12.742188 "/></g></g></g><g fill="#ff8d55" fill-opacity="0.4"><g transform="translate(29.639596, 15.692141)"><g><path d="M 10.609375 0 L 13.660156 0 L 9.0625 -15.617188 L 9.0625 -15.65625 L 5.988281 -15.65625 L 1.371094 0 L 4.441406 0 L 5.597656 -3.894531 L 9.453125 -3.894531 Z M 6.457031 -6.8125 L 7.535156 -10.449219 L 8.59375 -6.8125 Z M 6.457031 -6.8125 "/></g></g></g><g fill="#ff8d55" fill-opacity="0.4"><g transform="translate(44.66622, 15.692141)"><g><path d="M 10.609375 -15.65625 L 7.59375 -5.441406 L 4.578125 -15.65625 L 1.371094 -15.65625 L 5.988281 0 L 9.199219 0 L 13.816406 -15.65625 Z M 10.609375 -15.65625 "/></g></g></g><g fill="#ff8d55" fill-opacity="0.4"><g transform="translate(59.849377, 15.692141)"><g><path d="M 1.371094 -15.65625 L 4.304688 -15.65625 L 4.304688 -0.0585938 L 1.371094 -0.0585938 Z M 1.371094 -15.65625 "/></g></g></g><g fill="#ffbd59" fill-opacity="1"><g transform="translate(15.852949, 15.253711)"><g><path d="M 6.496094 -15.65625 L 1.371094 -15.65625 L 1.371094 0 L 6.496094 0 C 10.628906 0 13.5625 -3.503906 13.5625 -7.828125 C 13.5625 -12.152344 10.511719 -15.65625 6.496094 -15.65625 Z M 6.496094 -12.742188 C 8.828125 -12.742188 10.648438 -10.589844 10.648438 -7.828125 C 10.648438 -6.417969 10.214844 -5.148438 9.394531 -4.226562 C 8.867188 -3.621094 7.945312 -2.917969 6.496094 -2.917969 L 4.285156 -2.917969 L 4.285156 -12.742188 Z M 6.496094 -12.742188 "/></g></g></g><g fill="#ffbd59" fill-opacity="1"><g transform="translate(30.781743, 15.253711)"><g><path d="M 10.609375 0 L 13.660156 0 L 9.0625 -15.617188 L 9.0625 -15.65625 L 5.988281 -15.65625 L 1.371094 0 L 4.441406 0 L 5.597656 -3.894531 L 9.453125 -3.894531 Z M 6.457031 -6.8125 L 7.535156 -10.449219 L 8.59375 -6.8125 Z M 6.457031 -6.8125 "/></g></g></g><g fill="#ffbd59" fill-opacity="1"><g transform="translate(45.808367, 15.253711)"><g><path d="M 10.609375 -15.65625 L 7.59375 -5.441406 L 4.578125 -15.65625 L 1.371094 -15.65625 L 5.988281 0 L 9.199219 0 L 13.816406 -15.65625 Z M 10.609375 -15.65625 "/></g></g></g><g fill="#ffbd59" fill-opacity="1"><g transform="translate(60.991525, 15.253711)"><g><path d="M 1.371094 -15.65625 L 4.304688 -15.65625 L 4.304688 -0.0585938 L 1.371094 -0.0585938 Z M 1.371094 -15.65625 "/></g></g></g><g fill="#ffffff" fill-opacity="0.4"><g transform="translate(3.251765, 34.752115)"><g><path d="M 11.097656 -12.722656 L 11.097656 -15.65625 L 1.371094 -15.65625 L 1.371094 0 L 4.304688 0 L 4.304688 -5.539062 L 8.613281 -5.539062 L 8.613281 -8.472656 L 4.304688 -8.472656 L 4.304688 -12.722656 Z M 11.097656 -12.722656 "/></g></g></g><g fill="#ffffff" fill-opacity="0.4"><g transform="translate(15.108715, 34.752115)"><g><path d="M 13.601562 -9.785156 C 13.601562 -13.035156 12.113281 -15.65625 8.121094 -15.65625 L 1.371094 -15.65625 L 1.371094 0 L 4.304688 0 L 4.304688 -3.894531 L 8.121094 -3.894531 C 8.472656 -3.894531 8.808594 -3.914062 9.121094 -3.953125 L 10.53125 0 L 13.601562 0 L 11.820312 -5.011719 C 13.113281 -6.085938 13.601562 -7.828125 13.601562 -9.785156 Z M 4.304688 -6.832031 L 4.304688 -12.742188 L 8.121094 -12.742188 C 9.570312 -12.742188 9.960938 -12.25 10.097656 -12.09375 C 10.46875 -11.625 10.667969 -10.804688 10.667969 -9.785156 C 10.667969 -8.710938 10.46875 -7.886719 10.117188 -7.457031 C 9.785156 -7.027344 9.121094 -6.832031 8.121094 -6.832031 Z M 4.304688 -6.832031 "/></g></g></g><g fill="#ffffff" fill-opacity="0.4"><g transform="translate(30.076637, 34.752115)"><g><path d="M 8.691406 -15.851562 C 4.265625 -15.851562 0.683594 -12.269531 0.683594 -7.847656 C 0.683594 -3.425781 4.265625 0.15625 8.691406 0.15625 C 13.113281 0.15625 16.695312 -3.425781 16.695312 -7.847656 C 16.695312 -12.269531 13.113281 -15.851562 8.691406 -15.851562 Z M 8.691406 -12.859375 C 11.46875 -12.859375 13.425781 -10.609375 13.425781 -7.847656 C 13.425781 -5.089844 11.46875 -2.835938 8.691406 -2.835938 C 5.929688 -2.835938 3.972656 -5.089844 3.972656 -7.847656 C 3.972656 -10.609375 5.929688 -12.859375 8.691406 -12.859375 Z M 8.691406 -12.859375 "/></g></g></g><g fill="#ffffff" fill-opacity="0.4"><g transform="translate(47.451177, 34.752115)"><g><path d="M 13.132812 -15.65625 L 1.371094 -15.65625 L 1.371094 -12.742188 L 5.792969 -12.742188 L 5.792969 0 L 8.710938 0 L 8.710938 -12.742188 L 13.132812 -12.742188 Z M 13.132812 -15.65625 "/></g></g></g><g fill="#ffffff" fill-opacity="0.4"><g transform="translate(61.949522, 34.752115)"><g><path d="M 10.609375 0 L 13.660156 0 L 9.0625 -15.617188 L 9.0625 -15.65625 L 5.988281 -15.65625 L 1.371094 0 L 4.441406 0 L 5.597656 -3.894531 L 9.453125 -3.894531 Z M 6.457031 -6.8125 L 7.535156 -10.449219 L 8.59375 -6.8125 Z M 6.457031 -6.8125 "/></g></g></g><g fill="#ffcc00" fill-opacity="1"><g transform="translate(4.393912, 34.313686)"><g><path d="M 11.097656 -12.722656 L 11.097656 -15.65625 L 1.371094 -15.65625 L 1.371094 0 L 4.304688 0 L 4.304688 -5.539062 L 8.613281 -5.539062 L 8.613281 -8.472656 L 4.304688 -8.472656 L 4.304688 -12.722656 Z M 11.097656 -12.722656 "/></g></g></g><g fill="#ffcc00" fill-opacity="1"><g transform="translate(16.250862, 34.313686)"><g><path d="M 13.601562 -9.785156 C 13.601562 -13.035156 12.113281 -15.65625 8.121094 -15.65625 L 1.371094 -15.65625 L 1.371094 0 L 4.304688 0 L 4.304688 -3.894531 L 8.121094 -3.894531 C 8.472656 -3.894531 8.808594 -3.914062 9.121094 -3.953125 L 10.53125 0 L 13.601562 0 L 11.820312 -5.011719 C 13.113281 -6.085938 13.601562 -7.828125 13.601562 -9.785156 Z M 4.304688 -6.832031 L 4.304688 -12.742188 L 8.121094 -12.742188 C 9.570312 -12.742188 9.960938 -12.25 10.097656 -12.09375 C 10.46875 -11.625 10.667969 -10.804688 10.667969 -9.785156 C 10.667969 -8.710938 10.46875 -7.886719 10.117188 -7.457031 C 9.785156 -7.027344 9.121094 -6.832031 8.121094 -6.832031 Z M 4.304688 -6.832031 "/></g></g></g><g fill="#ffcc00" fill-opacity="1"><g transform="translate(31.218784, 34.313686)"><g><path d="M 8.691406 -15.851562 C 4.265625 -15.851562 0.683594 -12.269531 0.683594 -7.847656 C 0.683594 -3.425781 4.265625 0.15625 8.691406 0.15625 C 13.113281 0.15625 16.695312 -3.425781 16.695312 -7.847656 C 16.695312 -12.269531 13.113281 -15.851562 8.691406 -15.851562 Z M 8.691406 -12.859375 C 11.46875 -12.859375 13.425781 -10.609375 13.425781 -7.847656 C 13.425781 -5.089844 11.46875 -2.835938 8.691406 -2.835938 C 5.929688 -2.835938 3.972656 -5.089844 3.972656 -7.847656 C 3.972656 -10.609375 5.929688 -12.859375 8.691406 -12.859375 Z M 8.691406 -12.859375 "/></g></g></g><g fill="#ffcc00" fill-opacity="1"><g transform="translate(48.593324, 34.313686)"><g><path d="M 13.132812 -15.65625 L 1.371094 -15.65625 L 1.371094 -12.742188 L 5.792969 -12.742188 L 5.792969 0 L 8.710938 0 L 8.710938 -12.742188 L 13.132812 -12.742188 Z M 13.132812 -15.65625 "/></g></g></g><g fill="#ffcc00" fill-opacity="1"><g transform="translate(63.091669, 34.313686)"><g><path d="M 10.609375 0 L 13.660156 0 L 9.0625 -15.617188 L 9.0625 -15.65625 L 5.988281 -15.65625 L 1.371094 0 L 4.441406 0 L 5.597656 -3.894531 L 9.453125 -3.894531 Z M 6.457031 -6.8125 L 7.535156 -10.449219 L 8.59375 -6.8125 Z M 6.457031 -6.8125 "/></g></g></g></svg>