<svg xmlns="http://www.w3.org/2000/svg" xmlns:xlink="http://www.w3.org/1999/xlink" width="250" zoomAndPan="magnify" viewBox="0 0 187.5 187.499992" height="250" preserveAspectRatio="xMidYMid meet" version="1.0"><defs><g/><clipPath id="d51b3524c1"><path d="M 0 0 L 187 0 L 187 187 L 0 187 Z M 0 0 " clip-rule="nonzero"/></clipPath><clipPath id="1f5772474b"><path d="M 109 23.550781 L 144.652344 23.550781 L 144.652344 61 L 109 61 Z M 109 23.550781 " clip-rule="nonzero"/></clipPath><clipPath id="e79174d118"><path d="M 42.652344 90 L 78 90 L 78 98 L 42.652344 98 Z M 42.652344 90 " clip-rule="nonzero"/></clipPath><clipPath id="811eaea1fa"><path d="M 49 118 L 61 118 L 61 125.550781 L 49 125.550781 Z M 49 118 " clip-rule="nonzero"/></clipPath><clipPath id="469c62d47e"><path d="M 42.652344 90 L 78 90 L 78 98 L 42.652344 98 Z M 42.652344 90 " clip-rule="nonzero"/></clipPath><clipPath id="239575bad7"><path d="M 49 118 L 61 118 L 61 125.550781 L 49 125.550781 Z M 49 118 " clip-rule="nonzero"/></clipPath><clipPath id="59e4a6d849"><path d="M 42.652344 35 L 78 35 L 78 54 L 42.652344 54 Z M 42.652344 35 " clip-rule="nonzero"/></clipPath><clipPath id="349a3eaecc"><path d="M 42.652344 43 L 78 43 L 78 54 L 42.652344 54 Z M 42.652344 43 " clip-rule="nonzero"/></clipPath><clipPath id="33614762ce"><path d="M 109 93 L 144.652344 93 L 144.652344 108 L 109 108 Z M 109 93 " clip-rule="nonzero"/></clipPath><clipPath id="d7b11489f0"><path d="M 116 111 L 136 111 L 136 125.550781 L 116 125.550781 Z M 116 111 " clip-rule="nonzero"/></clipPath></defs><g clip-path="url(#d51b3524c1)"><path fill="#ffffff" d="M 0 0 L 187.5 0 L 187.5 195 L 0 195 Z M 0 0 " fill-opacity="1" fill-rule="nonzero"/><path fill="#ffffff" d="M 0 0 L 187.5 0 L 187.5 187.5 L 0 187.5 Z M 0 0 " fill-opacity="1" fill-rule="nonzero"/><path fill="#ffffff" d="M 0 0 L 187.5 0 L 187.5 187.5 L 0 187.5 Z M 0 0 " fill-opacity="1" fill-rule="nonzero"/></g><path fill="#6dbbea" d="M 127.066406 83.34375 C 127.066406 102.769531 111.320312 118.515625 91.890625 118.515625 C 72.464844 118.515625 56.71875 102.769531 56.71875 83.34375 C 56.71875 63.917969 72.464844 48.171875 91.890625 48.171875 C 111.320312 48.171875 127.066406 63.917969 127.066406 83.34375 " fill-opacity="1" fill-rule="nonzero"/><path fill="#578fd3" d="M 105.960938 102.6875 C 86.535156 102.6875 70.789062 86.945312 70.789062 67.515625 C 70.789062 62.40625 71.902344 57.570312 73.859375 53.1875 C 63.601562 59.328125 56.71875 70.519531 56.71875 83.34375 C 56.71875 102.769531 72.464844 118.515625 91.890625 118.515625 C 106.207031 118.515625 118.503906 109.949219 123.992188 97.675781 C 118.71875 100.839844 112.5625 102.6875 105.960938 102.6875 " fill-opacity="1" fill-rule="nonzero"/><path fill="#b9de23" d="M 115.613281 57.433594 L 97.167969 85.101562 L 114.753906 90.378906 L 107.71875 95.652344 L 107.71875 104.449219 L 100.683594 111.480469 L 101.558594 117.140625 C 116.273438 112.9375 127.066406 99.410156 127.066406 83.34375 C 127.066406 73.074219 122.632812 63.863281 115.613281 57.433594 " fill-opacity="1" fill-rule="nonzero"/><path fill="#b9de23" d="M 56.71875 83.34375 C 56.71875 100.195312 68.578125 114.265625 84.398438 117.699219 L 81.339844 104.449219 L 95.410156 95.652344 L 83.097656 86.859375 L 90.132812 78.066406 L 81.339844 69.273438 L 78.867188 50.691406 C 65.898438 55.871094 56.71875 68.527344 56.71875 83.34375 " fill-opacity="1" fill-rule="nonzero"/><path fill="#95d221" d="M 124.007812 97.695312 C 119.804688 107.085938 111.585938 114.277344 101.542969 117.140625 L 100.683594 111.480469 L 107.71875 104.449219 L 107.71875 102.632812 C 113.648438 102.351562 119.207031 100.59375 124.007812 97.695312 " fill-opacity="1" fill-rule="nonzero"/><path fill="#95d221" d="M 81.339844 104.449219 L 84.398438 117.691406 C 68.570312 114.265625 56.71875 100.195312 56.71875 83.34375 C 56.71875 70.503906 63.597656 59.320312 73.847656 53.1875 C 71.882812 57.5625 70.789062 62.417969 70.789062 67.515625 C 70.789062 81.269531 78.667969 93.160156 90.167969 98.945312 L 81.339844 104.449219 " fill-opacity="1" fill-rule="nonzero"/><g clip-path="url(#1f5772474b)"><path fill="#f3e305" d="M 127.066406 23.550781 L 131.0625 29.734375 L 137.933594 27.082031 L 137.535156 34.433594 L 144.652344 36.328125 L 140.007812 42.042969 L 144.652344 47.757812 L 137.535156 49.648438 L 137.933594 57 L 131.0625 54.355469 L 127.066406 60.535156 L 123.066406 54.355469 L 116.195312 57 L 116.59375 49.648438 L 109.480469 47.757812 L 114.121094 42.042969 L 109.480469 36.328125 L 116.59375 34.433594 L 116.195312 27.082031 L 123.066406 29.734375 L 127.066406 23.550781 " fill-opacity="1" fill-rule="nonzero"/></g><path fill="#f7b60b" d="M 124.46875 50.039062 L 120.003906 51.765625 L 120.265625 46.988281 L 115.632812 45.753906 L 118.65625 42.042969 L 115.632812 38.328125 L 120.265625 37.097656 L 120.003906 32.316406 L 124.46875 34.039062 L 127.066406 30.023438 L 129.660156 34.039062 L 134.125 32.316406 L 133.867188 37.097656 L 138.496094 38.328125 L 135.472656 42.042969 L 138.496094 45.753906 L 133.867188 46.988281 L 134.125 51.765625 L 129.660156 50.039062 L 127.066406 54.058594 L 124.46875 50.039062 " fill-opacity="1" fill-rule="nonzero"/><path fill="#f14c46" d="M 134.097656 42.894531 C 134.097656 46.785156 130.953125 49.929688 127.066406 49.929688 C 123.175781 49.929688 120.03125 46.785156 120.03125 42.894531 C 120.03125 39.007812 123.175781 35.859375 127.066406 35.859375 C 130.953125 35.859375 134.097656 39.007812 134.097656 42.894531 " fill-opacity="1" fill-rule="nonzero"/><path fill="#d2dbda" d="M 95.410156 44.652344 C 96.019531 44.652344 96.625 44.714844 97.210938 44.820312 C 99.621094 40.527344 104.210938 37.621094 109.480469 37.621094 C 114.746094 37.621094 119.335938 40.527344 121.746094 44.820312 C 122.332031 44.714844 122.9375 44.652344 123.546875 44.652344 C 127.46875 44.652344 130.890625 46.804688 132.710938 49.984375 C 132.875 49.972656 133.046875 49.929688 133.21875 49.929688 C 137.589844 49.929688 141.132812 53.476562 141.132812 57.84375 C 141.132812 62.214844 137.589844 65.757812 133.21875 65.757812 C 131.5625 65.757812 130.027344 65.242188 128.761719 64.375 C 127.222656 65.25 125.445312 65.757812 123.546875 65.757812 C 121.101562 65.757812 118.855469 64.917969 117.070312 63.523438 C 114.878906 64.933594 112.273438 65.757812 109.480469 65.757812 C 106.683594 65.757812 104.078125 64.933594 101.886719 63.523438 C 100.101562 64.917969 97.855469 65.757812 95.410156 65.757812 C 89.585938 65.757812 84.859375 61.03125 84.859375 55.207031 C 84.859375 49.378906 89.585938 44.652344 95.410156 44.652344 " fill-opacity="1" fill-rule="nonzero"/><path fill="#8f9697" d="M 138.496094 58.722656 C 136.839844 58.722656 135.300781 58.207031 134.039062 57.34375 C 132.5 58.214844 130.71875 58.722656 128.824219 58.722656 C 126.378906 58.722656 124.132812 57.886719 122.34375 56.492188 C 120.152344 57.898438 117.550781 58.722656 114.753906 58.722656 C 111.957031 58.722656 109.355469 57.898438 107.164062 56.492188 C 105.378906 57.886719 103.132812 58.722656 100.683594 58.722656 C 94.859375 58.722656 90.132812 53.996094 90.132812 48.171875 C 90.132812 47.402344 90.222656 46.652344 90.382812 45.933594 C 87.089844 47.71875 84.859375 51.199219 84.859375 55.207031 C 84.859375 61.03125 89.585938 65.757812 95.410156 65.757812 C 97.855469 65.757812 100.101562 64.917969 101.886719 63.523438 C 104.078125 64.933594 106.683594 65.757812 109.480469 65.757812 C 112.273438 65.757812 114.878906 64.933594 117.070312 63.523438 C 118.855469 64.917969 121.101562 65.757812 123.546875 65.757812 C 125.445312 65.757812 127.222656 65.25 128.761719 64.375 C 130.027344 65.242188 131.5625 65.757812 133.21875 65.757812 C 137.453125 65.757812 140.871094 62.425781 141.09375 58.25 C 140.273438 58.539062 139.410156 58.722656 138.496094 58.722656 " fill-opacity="1" fill-rule="nonzero"/><path fill="#f3e305" d="M 111.238281 71.035156 L 114.753906 56.964844 L 98.925781 76.308594 L 107.71875 78.066406 L 104.203125 92.136719 L 120.03125 72.792969 L 111.238281 71.035156 " fill-opacity="1" fill-rule="nonzero"/><path fill="#f7b60b" d="M 112.996094 74.550781 L 105.960938 74.550781 L 114.753906 56.964844 L 98.925781 76.308594 L 107.71875 78.066406 L 104.203125 92.136719 L 112.996094 74.550781 " fill-opacity="1" fill-rule="nonzero"/><path fill="#d2dbda" d="M 70.789062 104.449219 L 49.683594 104.449219 C 47.742188 104.449219 46.167969 102.875 46.167969 100.929688 C 46.167969 98.984375 47.742188 97.414062 49.683594 97.414062 L 70.789062 97.414062 C 72.734375 97.414062 74.304688 98.984375 74.304688 100.929688 C 74.304688 102.875 72.734375 104.449219 70.789062 104.449219 " fill-opacity="1" fill-rule="nonzero"/><g clip-path="url(#e79174d118)"><path fill="#d2dbda" d="M 74.304688 97.414062 L 46.167969 97.414062 C 44.222656 97.414062 42.652344 95.839844 42.652344 93.894531 C 42.652344 91.953125 44.222656 90.378906 46.167969 90.378906 L 74.304688 90.378906 C 76.25 90.378906 77.824219 91.953125 77.824219 93.894531 C 77.824219 95.839844 76.25 97.414062 74.304688 97.414062 " fill-opacity="1" fill-rule="nonzero"/></g><path fill="#d2dbda" d="M 67.273438 111.480469 L 53.203125 111.480469 C 51.257812 111.480469 49.683594 109.910156 49.683594 107.964844 C 49.683594 106.019531 51.257812 104.449219 53.203125 104.449219 L 67.273438 104.449219 C 69.214844 104.449219 70.789062 106.019531 70.789062 107.964844 C 70.789062 109.910156 69.214844 111.480469 67.273438 111.480469 " fill-opacity="1" fill-rule="nonzero"/><path fill="#d2dbda" d="M 61.996094 118.515625 L 54.960938 118.515625 C 53.015625 118.515625 51.445312 116.941406 51.445312 115 C 51.445312 113.054688 53.015625 111.480469 54.960938 111.480469 L 61.996094 111.480469 C 63.941406 111.480469 65.511719 113.054688 65.511719 115 C 65.511719 116.941406 63.941406 118.515625 61.996094 118.515625 " fill-opacity="1" fill-rule="nonzero"/><g clip-path="url(#811eaea1fa)"><path fill="#d2dbda" d="M 56.71875 125.550781 L 53.203125 125.550781 C 51.257812 125.550781 49.683594 123.976562 49.683594 122.035156 C 49.683594 120.089844 51.257812 118.515625 53.203125 118.515625 L 56.71875 118.515625 C 58.664062 118.515625 60.238281 120.089844 60.238281 122.035156 C 60.238281 123.976562 58.664062 125.550781 56.71875 125.550781 " fill-opacity="1" fill-rule="nonzero"/></g><path fill="#8f9697" d="M 49.683594 97.414062 C 47.742188 97.414062 46.167969 98.984375 46.167969 100.929688 C 46.167969 102.875 47.742188 104.449219 49.683594 104.449219 L 70.789062 104.449219 C 72.734375 104.449219 74.304688 102.875 74.304688 100.929688 L 53.203125 100.929688 C 51.257812 100.929688 49.683594 99.355469 49.683594 97.414062 " fill-opacity="1" fill-rule="nonzero"/><g clip-path="url(#469c62d47e)"><path fill="#8f9697" d="M 46.167969 90.378906 C 44.222656 90.378906 42.652344 91.953125 42.652344 93.894531 C 42.652344 95.839844 44.222656 97.414062 46.167969 97.414062 L 74.304688 97.414062 C 76.25 97.414062 77.824219 95.839844 77.824219 93.894531 L 49.683594 93.894531 C 47.742188 93.894531 46.167969 92.324219 46.167969 90.378906 " fill-opacity="1" fill-rule="nonzero"/></g><path fill="#8f9697" d="M 53.203125 104.449219 C 51.257812 104.449219 49.683594 106.019531 49.683594 107.964844 C 49.683594 109.910156 51.257812 111.480469 53.203125 111.480469 L 67.273438 111.480469 C 69.214844 111.480469 70.789062 109.910156 70.789062 107.964844 L 56.71875 107.964844 C 54.777344 107.964844 53.203125 106.390625 53.203125 104.449219 " fill-opacity="1" fill-rule="nonzero"/><path fill="#8f9697" d="M 54.960938 111.480469 C 53.015625 111.480469 51.445312 113.054688 51.445312 115 C 51.445312 116.941406 53.015625 118.515625 54.960938 118.515625 L 61.996094 118.515625 C 63.941406 118.515625 65.511719 116.941406 65.511719 115 L 58.480469 115 C 56.535156 115 54.960938 113.425781 54.960938 111.480469 " fill-opacity="1" fill-rule="nonzero"/><g clip-path="url(#239575bad7)"><path fill="#8f9697" d="M 53.203125 118.515625 C 51.257812 118.515625 49.683594 120.089844 49.683594 122.035156 C 49.683594 123.976562 51.257812 125.550781 53.203125 125.550781 L 56.71875 125.550781 C 58.664062 125.550781 60.238281 123.976562 60.238281 122.035156 L 56.71875 122.035156 C 54.777344 122.035156 53.203125 120.460938 53.203125 118.515625 " fill-opacity="1" fill-rule="nonzero"/></g><g clip-path="url(#59e4a6d849)"><path fill="#d2dbda" d="M 72.546875 42.894531 C 72.230469 42.894531 71.921875 42.9375 71.621094 42.992188 C 70.417969 40.839844 68.152344 39.378906 65.511719 39.378906 C 64.949219 39.378906 64.40625 39.460938 63.886719 39.585938 C 62.292969 37.339844 59.679688 35.859375 56.71875 35.859375 C 52.460938 35.859375 48.910156 38.890625 48.105469 42.917969 C 48.042969 42.910156 47.988281 42.894531 47.925781 42.894531 C 45.015625 42.894531 42.652344 45.257812 42.652344 48.171875 C 42.652344 51.085938 45.015625 53.449219 47.925781 53.449219 C 49.402344 53.449219 50.738281 52.835938 51.699219 51.855469 C 53.121094 52.851562 54.851562 53.449219 56.71875 53.449219 C 58.4375 53.449219 60.03125 52.933594 61.382812 52.082031 C 62.546875 52.933594 63.960938 53.449219 65.511719 53.449219 C 66.914062 53.449219 68.21875 53.027344 69.320312 52.3125 C 70.210938 53.015625 71.324219 53.449219 72.546875 53.449219 C 75.460938 53.449219 77.824219 51.085938 77.824219 48.171875 C 77.824219 45.257812 75.460938 42.894531 72.546875 42.894531 " fill-opacity="1" fill-rule="nonzero"/></g><g clip-path="url(#349a3eaecc)"><path fill="#8f9697" d="M 76.066406 48.171875 C 74.84375 48.171875 73.730469 47.738281 72.835938 47.039062 C 71.738281 47.753906 70.433594 48.171875 69.03125 48.171875 C 67.476562 48.171875 66.0625 47.65625 64.902344 46.804688 C 63.546875 47.65625 61.953125 48.171875 60.238281 48.171875 C 58.363281 48.171875 56.636719 47.574219 55.214844 46.578125 C 54.253906 47.558594 52.921875 48.171875 51.445312 48.171875 C 48.640625 48.171875 46.367188 45.972656 46.203125 43.210938 C 44.140625 43.925781 42.652344 45.863281 42.652344 48.171875 C 42.652344 51.085938 45.015625 53.449219 47.925781 53.449219 C 49.402344 53.449219 50.738281 52.835938 51.699219 51.855469 C 53.121094 52.851562 54.851562 53.449219 56.71875 53.449219 C 58.4375 53.449219 60.03125 52.933594 61.382812 52.082031 C 62.546875 52.933594 63.960938 53.449219 65.511719 53.449219 C 66.914062 53.449219 68.21875 53.027344 69.320312 52.3125 C 70.210938 53.015625 71.324219 53.449219 72.546875 53.449219 C 75.460938 53.449219 77.824219 51.085938 77.824219 48.171875 C 77.824219 48.0625 77.796875 47.964844 77.789062 47.855469 C 77.246094 48.046875 76.667969 48.171875 76.066406 48.171875 " fill-opacity="1" fill-rule="nonzero"/></g><g clip-path="url(#33614762ce)"><path fill="#90d9f6" d="M 137.617188 107.964844 L 111.238281 107.964844 C 110.269531 107.964844 109.480469 107.175781 109.480469 106.207031 C 109.480469 105.238281 110.269531 104.449219 111.238281 104.449219 L 137.617188 104.449219 C 139.554688 104.449219 141.132812 102.867188 141.132812 100.929688 C 141.132812 98.992188 139.554688 97.414062 137.617188 97.414062 C 136.648438 97.414062 135.859375 96.621094 135.859375 95.652344 C 135.859375 94.6875 136.648438 93.894531 137.617188 93.894531 C 141.496094 93.894531 144.652344 97.046875 144.652344 100.929688 C 144.652344 104.8125 141.496094 107.964844 137.617188 107.964844 " fill-opacity="1" fill-rule="nonzero"/></g><path fill="#90d9f6" d="M 118.273438 122.035156 L 105.960938 122.035156 C 104.992188 122.035156 104.203125 121.242188 104.203125 120.273438 C 104.203125 119.304688 104.992188 118.515625 105.960938 118.515625 L 118.273438 118.515625 C 119.242188 118.515625 120.03125 119.304688 120.03125 120.273438 C 120.03125 121.242188 119.242188 122.035156 118.273438 122.035156 " fill-opacity="1" fill-rule="nonzero"/><path fill="#90d9f6" d="M 125.304688 100.929688 L 112.996094 100.929688 C 112.027344 100.929688 111.238281 100.140625 111.238281 99.171875 C 111.238281 98.203125 112.027344 97.414062 112.996094 97.414062 L 125.304688 97.414062 C 126.273438 97.414062 127.066406 98.203125 127.066406 99.171875 C 127.066406 100.140625 126.273438 100.929688 125.304688 100.929688 " fill-opacity="1" fill-rule="nonzero"/><g clip-path="url(#d7b11489f0)"><path fill="#90d9f6" d="M 128.824219 125.550781 C 127.855469 125.550781 127.066406 124.761719 127.066406 123.792969 C 127.066406 122.824219 127.855469 122.035156 128.824219 122.035156 C 130.761719 122.035156 132.339844 120.453125 132.339844 118.515625 C 132.339844 116.578125 130.761719 115 128.824219 115 L 118.273438 115 C 117.304688 115 116.511719 114.210938 116.511719 113.242188 C 116.511719 112.273438 117.304688 111.480469 118.273438 111.480469 L 128.824219 111.480469 C 132.703125 111.480469 135.859375 114.636719 135.859375 118.515625 C 135.859375 122.398438 132.703125 125.550781 128.824219 125.550781 " fill-opacity="1" fill-rule="nonzero"/></g><path fill="#90d9f6" d="M 93.652344 107.964844 L 90.132812 107.964844 C 89.164062 107.964844 88.375 107.175781 88.375 106.207031 C 88.375 105.238281 89.164062 104.449219 90.132812 104.449219 L 93.652344 104.449219 C 94.621094 104.449219 95.410156 105.238281 95.410156 106.207031 C 95.410156 107.175781 94.621094 107.964844 93.652344 107.964844 " fill-opacity="1" fill-rule="nonzero"/><path fill="#90d9f6" d="M 100.683594 100.929688 L 97.167969 100.929688 C 96.199219 100.929688 95.410156 100.140625 95.410156 99.171875 C 95.410156 98.203125 96.199219 97.414062 97.167969 97.414062 L 100.683594 97.414062 C 101.652344 97.414062 102.445312 98.203125 102.445312 99.171875 C 102.445312 100.140625 101.652344 100.929688 100.683594 100.929688 " fill-opacity="1" fill-rule="nonzero"/><path fill="#90d9f6" d="M 51.445312 64 C 50.796875 64 50.179688 63.640625 49.871094 63.03125 L 48.113281 59.511719 C 47.679688 58.640625 48.03125 57.582031 48.894531 57.148438 C 49.769531 56.710938 50.824219 57.066406 51.257812 57.933594 L 53.015625 61.449219 C 53.449219 62.324219 53.101562 63.378906 52.234375 63.8125 C 51.980469 63.9375 51.710938 64 51.445312 64 " fill-opacity="1" fill-rule="nonzero"/><path fill="#90d9f6" d="M 58.480469 64 C 57.832031 64 57.214844 63.640625 56.90625 63.03125 L 55.148438 59.511719 C 54.714844 58.640625 55.0625 57.582031 55.929688 57.148438 C 56.800781 56.710938 57.859375 57.066406 58.292969 57.933594 L 60.050781 61.449219 C 60.484375 62.324219 60.132812 63.378906 59.269531 63.8125 C 59.015625 63.9375 58.746094 64 58.480469 64 " fill-opacity="1" fill-rule="nonzero"/><path fill="#90d9f6" d="M 65.511719 64 C 64.867188 64 64.25 63.640625 63.941406 63.03125 L 62.179688 59.511719 C 61.75 58.640625 62.097656 57.582031 62.964844 57.148438 C 63.835938 56.710938 64.894531 57.066406 65.328125 57.933594 L 67.085938 61.449219 C 67.519531 62.324219 67.167969 63.378906 66.304688 63.8125 C 66.050781 63.9375 65.78125 64 65.511719 64 " fill-opacity="1" fill-rule="nonzero"/><path fill="#90d9f6" d="M 72.546875 64 C 71.902344 64 71.285156 63.640625 70.972656 63.03125 L 69.214844 59.511719 C 68.78125 58.640625 69.132812 57.582031 70 57.148438 C 70.871094 56.710938 71.929688 57.066406 72.363281 57.933594 L 74.121094 61.449219 C 74.554688 62.324219 74.203125 63.378906 73.335938 63.8125 C 73.082031 63.9375 72.816406 64 72.546875 64 " fill-opacity="1" fill-rule="nonzero"/><path fill="#90d9f6" d="M 54.960938 72.792969 C 54.316406 72.792969 53.699219 72.433594 53.386719 71.824219 L 51.628906 68.304688 C 51.195312 67.433594 51.546875 66.375 52.414062 65.941406 C 53.285156 65.511719 54.34375 65.859375 54.777344 66.726562 L 56.535156 70.242188 C 56.96875 71.117188 56.617188 72.175781 55.75 72.605469 C 55.496094 72.730469 55.230469 72.792969 54.960938 72.792969 " fill-opacity="1" fill-rule="nonzero"/><path fill="#90d9f6" d="M 61.996094 72.792969 C 61.351562 72.792969 60.730469 72.433594 60.421875 71.824219 L 58.664062 68.304688 C 58.230469 67.433594 58.582031 66.375 59.445312 65.941406 C 60.320312 65.511719 61.378906 65.859375 61.808594 66.726562 L 63.570312 70.242188 C 64 71.117188 63.652344 72.175781 62.785156 72.605469 C 62.53125 72.730469 62.265625 72.792969 61.996094 72.792969 " fill-opacity="1" fill-rule="nonzero"/><path fill="#90d9f6" d="M 69.03125 72.792969 C 68.382812 72.792969 67.765625 72.433594 67.457031 71.824219 L 65.699219 68.304688 C 65.265625 67.433594 65.617188 66.375 66.480469 65.941406 C 67.355469 65.511719 68.410156 65.859375 68.84375 66.726562 L 70.601562 70.242188 C 71.035156 71.117188 70.6875 72.175781 69.820312 72.605469 C 69.566406 72.730469 69.296875 72.792969 69.03125 72.792969 " fill-opacity="1" fill-rule="nonzero"/><path fill="#90d9f6" d="M 76.066406 72.792969 C 75.417969 72.792969 74.800781 72.433594 74.492188 71.824219 L 72.734375 68.304688 C 72.300781 67.433594 72.652344 66.375 73.515625 65.941406 C 74.386719 65.511719 75.445312 65.859375 75.878906 66.726562 L 77.636719 70.242188 C 78.070312 71.117188 77.71875 72.175781 76.855469 72.605469 C 76.601562 72.730469 76.332031 72.792969 76.066406 72.792969 " fill-opacity="1" fill-rule="nonzero"/><path fill="#90d9f6" d="M 58.480469 83.34375 C 57.832031 83.34375 57.214844 82.988281 56.90625 82.375 L 55.148438 78.859375 C 54.714844 77.984375 55.0625 76.925781 55.929688 76.496094 C 56.800781 76.0625 57.859375 76.414062 58.292969 77.277344 L 60.050781 80.796875 C 60.484375 81.667969 60.132812 82.726562 59.269531 83.160156 C 59.015625 83.28125 58.746094 83.34375 58.480469 83.34375 " fill-opacity="1" fill-rule="nonzero"/><path fill="#90d9f6" d="M 65.511719 83.34375 C 64.867188 83.34375 64.25 82.988281 63.941406 82.375 L 62.179688 78.859375 C 61.75 77.984375 62.097656 76.925781 62.964844 76.496094 C 63.835938 76.0625 64.894531 76.414062 65.328125 77.277344 L 67.085938 80.796875 C 67.519531 81.667969 67.167969 82.726562 66.304688 83.160156 C 66.050781 83.28125 65.78125 83.34375 65.511719 83.34375 " fill-opacity="1" fill-rule="nonzero"/><path fill="#90d9f6" d="M 72.546875 83.34375 C 71.902344 83.34375 71.285156 82.988281 70.972656 82.375 L 69.214844 78.859375 C 68.78125 77.984375 69.132812 76.925781 70 76.496094 C 70.871094 76.0625 71.929688 76.414062 72.363281 77.277344 L 74.121094 80.796875 C 74.554688 81.667969 74.203125 82.726562 73.335938 83.160156 C 73.082031 83.28125 72.816406 83.34375 72.546875 83.34375 " fill-opacity="1" fill-rule="nonzero"/><path fill="#90d9f6" d="M 77.824219 81.585938 C 77.175781 81.585938 76.558594 81.226562 76.25 80.617188 L 74.492188 77.097656 C 74.058594 76.226562 74.410156 75.167969 75.273438 74.734375 C 76.148438 74.296875 77.207031 74.652344 77.636719 75.519531 L 79.398438 79.035156 C 79.828125 79.910156 79.480469 80.96875 78.613281 81.398438 C 78.359375 81.523438 78.089844 81.585938 77.824219 81.585938 " fill-opacity="1" fill-rule="nonzero"/><g fill="#37545b" fill-opacity="1"><g transform="translate(45.313257, 150.663374)"><g><path d="M 3.90625 0.109375 C 3.21875 0.109375 2.628906 -0.00390625 2.140625 -0.234375 C 1.648438 -0.472656 1.269531 -0.816406 1 -1.265625 C 0.738281 -1.710938 0.59375 -2.257812 0.5625 -2.90625 C 0.5625 -3.207031 0.5625 -3.53125 0.5625 -3.875 C 0.5625 -4.226562 0.5625 -4.5625 0.5625 -4.875 C 0.59375 -5.507812 0.742188 -6.050781 1.015625 -6.5 C 1.285156 -6.945312 1.664062 -7.289062 2.15625 -7.53125 C 2.644531 -7.769531 3.226562 -7.890625 3.90625 -7.890625 C 4.414062 -7.890625 4.867188 -7.828125 5.265625 -7.703125 C 5.671875 -7.578125 6.019531 -7.394531 6.3125 -7.15625 C 6.613281 -6.914062 6.847656 -6.632812 7.015625 -6.3125 C 7.179688 -6 7.269531 -5.644531 7.28125 -5.25 C 7.28125 -5.1875 7.253906 -5.128906 7.203125 -5.078125 C 7.160156 -5.035156 7.109375 -5.015625 7.046875 -5.015625 L 5.765625 -5.015625 C 5.671875 -5.015625 5.597656 -5.035156 5.546875 -5.078125 C 5.503906 -5.117188 5.46875 -5.191406 5.4375 -5.296875 C 5.320312 -5.742188 5.132812 -6.046875 4.875 -6.203125 C 4.613281 -6.359375 4.289062 -6.4375 3.90625 -6.4375 C 3.457031 -6.4375 3.097656 -6.3125 2.828125 -6.0625 C 2.566406 -5.8125 2.425781 -5.398438 2.40625 -4.828125 C 2.375 -4.210938 2.375 -3.585938 2.40625 -2.953125 C 2.425781 -2.378906 2.566406 -1.960938 2.828125 -1.703125 C 3.097656 -1.453125 3.457031 -1.328125 3.90625 -1.328125 C 4.289062 -1.328125 4.613281 -1.410156 4.875 -1.578125 C 5.144531 -1.742188 5.332031 -2.046875 5.4375 -2.484375 C 5.46875 -2.585938 5.503906 -2.65625 5.546875 -2.6875 C 5.597656 -2.726562 5.671875 -2.75 5.765625 -2.75 L 7.046875 -2.75 C 7.109375 -2.75 7.160156 -2.726562 7.203125 -2.6875 C 7.253906 -2.644531 7.28125 -2.585938 7.28125 -2.515625 C 7.269531 -2.128906 7.179688 -1.773438 7.015625 -1.453125 C 6.847656 -1.140625 6.613281 -0.863281 6.3125 -0.625 C 6.019531 -0.382812 5.671875 -0.203125 5.265625 -0.078125 C 4.867188 0.046875 4.414062 0.109375 3.90625 0.109375 Z M 3.90625 0.109375 "/></g></g></g><g fill="#37545b" fill-opacity="1"><g transform="translate(57.45464, 150.663374)"><g><path d="M 1.09375 0 C 1.019531 0 0.957031 -0.0234375 0.90625 -0.078125 C 0.851562 -0.128906 0.828125 -0.195312 0.828125 -0.28125 L 0.828125 -7.5 C 0.828125 -7.582031 0.851562 -7.648438 0.90625 -7.703125 C 0.957031 -7.753906 1.019531 -7.78125 1.09375 -7.78125 L 2.34375 -7.78125 C 2.414062 -7.78125 2.476562 -7.753906 2.53125 -7.703125 C 2.582031 -7.648438 2.609375 -7.582031 2.609375 -7.5 L 2.609375 -1.5 L 6.046875 -1.5 C 6.128906 -1.5 6.195312 -1.472656 6.25 -1.421875 C 6.300781 -1.367188 6.328125 -1.300781 6.328125 -1.21875 L 6.328125 -0.28125 C 6.328125 -0.195312 6.300781 -0.128906 6.25 -0.078125 C 6.195312 -0.0234375 6.128906 0 6.046875 0 Z M 1.09375 0 "/></g></g></g><g fill="#37545b" fill-opacity="1"><g transform="translate(68.429889, 150.663374)"><g><path d="M 1.09375 0 C 1.019531 0 0.957031 -0.0234375 0.90625 -0.078125 C 0.851562 -0.128906 0.828125 -0.195312 0.828125 -0.28125 L 0.828125 -7.5 C 0.828125 -7.582031 0.851562 -7.648438 0.90625 -7.703125 C 0.957031 -7.753906 1.019531 -7.78125 1.09375 -7.78125 L 6.125 -7.78125 C 6.207031 -7.78125 6.273438 -7.753906 6.328125 -7.703125 C 6.378906 -7.648438 6.40625 -7.582031 6.40625 -7.5 L 6.40625 -6.609375 C 6.40625 -6.523438 6.378906 -6.457031 6.328125 -6.40625 C 6.273438 -6.351562 6.207031 -6.328125 6.125 -6.328125 L 2.53125 -6.328125 L 2.53125 -4.59375 L 5.890625 -4.59375 C 5.972656 -4.59375 6.039062 -4.566406 6.09375 -4.515625 C 6.144531 -4.460938 6.171875 -4.398438 6.171875 -4.328125 L 6.171875 -3.5 C 6.171875 -3.425781 6.144531 -3.359375 6.09375 -3.296875 C 6.039062 -3.242188 5.972656 -3.21875 5.890625 -3.21875 L 2.53125 -3.21875 L 2.53125 -1.4375 L 6.21875 -1.4375 C 6.300781 -1.4375 6.367188 -1.410156 6.421875 -1.359375 C 6.472656 -1.304688 6.5 -1.242188 6.5 -1.171875 L 6.5 -0.28125 C 6.5 -0.195312 6.472656 -0.128906 6.421875 -0.078125 C 6.367188 -0.0234375 6.300781 0 6.21875 0 Z M 1.09375 0 "/></g></g></g><g fill="#37545b" fill-opacity="1"><g transform="translate(79.882694, 150.663374)"><g><path d="M 0.359375 0 C 0.296875 0 0.242188 -0.0195312 0.203125 -0.0625 C 0.160156 -0.113281 0.140625 -0.171875 0.140625 -0.234375 C 0.140625 -0.265625 0.140625 -0.296875 0.140625 -0.328125 L 2.78125 -7.484375 C 2.8125 -7.554688 2.859375 -7.625 2.921875 -7.6875 C 2.984375 -7.75 3.078125 -7.78125 3.203125 -7.78125 L 4.625 -7.78125 C 4.738281 -7.78125 4.828125 -7.75 4.890625 -7.6875 C 4.960938 -7.625 5.015625 -7.554688 5.046875 -7.484375 L 7.671875 -0.328125 C 7.691406 -0.296875 7.703125 -0.265625 7.703125 -0.234375 C 7.703125 -0.171875 7.675781 -0.113281 7.625 -0.0625 C 7.570312 -0.0195312 7.515625 0 7.453125 0 L 6.28125 0 C 6.175781 0 6.097656 -0.0234375 6.046875 -0.078125 C 6.003906 -0.128906 5.972656 -0.175781 5.953125 -0.21875 L 5.484375 -1.46875 L 2.34375 -1.46875 L 1.875 -0.21875 C 1.851562 -0.175781 1.816406 -0.128906 1.765625 -0.078125 C 1.722656 -0.0234375 1.644531 0 1.53125 0 Z M 2.765625 -2.90625 L 5.0625 -2.90625 L 3.90625 -6.09375 Z M 2.765625 -2.90625 "/></g></g></g><g fill="#37545b" fill-opacity="1"><g transform="translate(92.146243, 150.663374)"><g><path d="M 1.09375 0 C 1.019531 0 0.957031 -0.0234375 0.90625 -0.078125 C 0.851562 -0.128906 0.828125 -0.195312 0.828125 -0.28125 L 0.828125 -7.5 C 0.828125 -7.582031 0.851562 -7.648438 0.90625 -7.703125 C 0.957031 -7.753906 1.019531 -7.78125 1.09375 -7.78125 L 2.109375 -7.78125 C 2.222656 -7.78125 2.304688 -7.753906 2.359375 -7.703125 C 2.410156 -7.648438 2.441406 -7.609375 2.453125 -7.578125 L 5.40625 -2.953125 L 5.40625 -7.5 C 5.40625 -7.582031 5.429688 -7.648438 5.484375 -7.703125 C 5.535156 -7.753906 5.601562 -7.78125 5.6875 -7.78125 L 6.828125 -7.78125 C 6.898438 -7.78125 6.960938 -7.753906 7.015625 -7.703125 C 7.066406 -7.648438 7.09375 -7.582031 7.09375 -7.5 L 7.09375 -0.28125 C 7.09375 -0.207031 7.066406 -0.140625 7.015625 -0.078125 C 6.960938 -0.0234375 6.898438 0 6.828125 0 L 5.796875 0 C 5.679688 0 5.597656 -0.0234375 5.546875 -0.078125 C 5.503906 -0.140625 5.472656 -0.179688 5.453125 -0.203125 L 2.515625 -4.671875 L 2.515625 -0.28125 C 2.515625 -0.195312 2.488281 -0.128906 2.4375 -0.078125 C 2.382812 -0.0234375 2.316406 0 2.234375 0 Z M 1.09375 0 "/></g></g></g><g fill="#37545b" fill-opacity="1"><g transform="translate(104.509747, 150.663374)"><g/></g></g><g fill="#37545b" fill-opacity="1"><g transform="translate(111.409082, 150.663374)"><g><path d="M 3.625 0.109375 C 2.914062 0.109375 2.320312 0.00390625 1.84375 -0.203125 C 1.363281 -0.410156 1 -0.679688 0.75 -1.015625 C 0.507812 -1.347656 0.378906 -1.703125 0.359375 -2.078125 C 0.359375 -2.140625 0.378906 -2.191406 0.421875 -2.234375 C 0.472656 -2.285156 0.53125 -2.3125 0.59375 -2.3125 L 1.796875 -2.3125 C 1.890625 -2.3125 1.960938 -2.289062 2.015625 -2.25 C 2.066406 -2.21875 2.117188 -2.171875 2.171875 -2.109375 C 2.222656 -1.972656 2.304688 -1.847656 2.421875 -1.734375 C 2.535156 -1.617188 2.6875 -1.519531 2.875 -1.4375 C 3.070312 -1.363281 3.320312 -1.328125 3.625 -1.328125 C 4.101562 -1.328125 4.460938 -1.40625 4.703125 -1.5625 C 4.941406 -1.71875 5.0625 -1.929688 5.0625 -2.203125 C 5.0625 -2.390625 4.992188 -2.539062 4.859375 -2.65625 C 4.734375 -2.769531 4.53125 -2.875 4.25 -2.96875 C 3.976562 -3.070312 3.613281 -3.175781 3.15625 -3.28125 C 2.601562 -3.40625 2.128906 -3.5625 1.734375 -3.75 C 1.347656 -3.9375 1.054688 -4.179688 0.859375 -4.484375 C 0.660156 -4.785156 0.5625 -5.15625 0.5625 -5.59375 C 0.5625 -6.039062 0.679688 -6.4375 0.921875 -6.78125 C 1.171875 -7.125 1.519531 -7.394531 1.96875 -7.59375 C 2.414062 -7.789062 2.945312 -7.890625 3.5625 -7.890625 C 4.050781 -7.890625 4.484375 -7.820312 4.859375 -7.6875 C 5.242188 -7.550781 5.5625 -7.375 5.8125 -7.15625 C 6.070312 -6.945312 6.269531 -6.71875 6.40625 -6.46875 C 6.539062 -6.226562 6.613281 -5.992188 6.625 -5.765625 C 6.625 -5.703125 6.601562 -5.644531 6.5625 -5.59375 C 6.519531 -5.539062 6.460938 -5.515625 6.390625 -5.515625 L 5.140625 -5.515625 C 5.066406 -5.515625 5 -5.53125 4.9375 -5.5625 C 4.882812 -5.59375 4.832031 -5.644531 4.78125 -5.71875 C 4.75 -5.914062 4.625 -6.082031 4.40625 -6.21875 C 4.1875 -6.363281 3.90625 -6.4375 3.5625 -6.4375 C 3.195312 -6.4375 2.90625 -6.367188 2.6875 -6.234375 C 2.476562 -6.109375 2.375 -5.910156 2.375 -5.640625 C 2.375 -5.460938 2.425781 -5.3125 2.53125 -5.1875 C 2.644531 -5.070312 2.828125 -4.96875 3.078125 -4.875 C 3.335938 -4.78125 3.679688 -4.679688 4.109375 -4.578125 C 4.753906 -4.441406 5.28125 -4.28125 5.6875 -4.09375 C 6.09375 -3.90625 6.390625 -3.664062 6.578125 -3.375 C 6.773438 -3.082031 6.875 -2.710938 6.875 -2.265625 C 6.875 -1.765625 6.734375 -1.335938 6.453125 -0.984375 C 6.179688 -0.628906 5.800781 -0.359375 5.3125 -0.171875 C 4.832031 0.015625 4.269531 0.109375 3.625 0.109375 Z M 3.625 0.109375 "/></g></g></g><g fill="#37545b" fill-opacity="1"><g transform="translate(123.095118, 150.663374)"><g><path d="M 1.09375 0 C 1.019531 0 0.957031 -0.0234375 0.90625 -0.078125 C 0.851562 -0.128906 0.828125 -0.195312 0.828125 -0.28125 L 0.828125 -7.5 C 0.828125 -7.582031 0.851562 -7.648438 0.90625 -7.703125 C 0.957031 -7.753906 1.019531 -7.78125 1.09375 -7.78125 L 2.28125 -7.78125 C 2.363281 -7.78125 2.429688 -7.753906 2.484375 -7.703125 C 2.535156 -7.648438 2.5625 -7.582031 2.5625 -7.5 L 2.5625 -4.96875 L 4.84375 -7.5625 C 4.875 -7.601562 4.921875 -7.648438 4.984375 -7.703125 C 5.054688 -7.753906 5.15625 -7.78125 5.28125 -7.78125 L 6.625 -7.78125 C 6.6875 -7.78125 6.738281 -7.753906 6.78125 -7.703125 C 6.832031 -7.648438 6.859375 -7.597656 6.859375 -7.546875 C 6.859375 -7.492188 6.847656 -7.445312 6.828125 -7.40625 L 3.96875 -4.0625 L 7.03125 -0.359375 C 7.0625 -0.335938 7.078125 -0.296875 7.078125 -0.234375 C 7.078125 -0.171875 7.050781 -0.113281 7 -0.0625 C 6.957031 -0.0195312 6.90625 0 6.84375 0 L 5.4375 0 C 5.3125 0 5.210938 -0.0234375 5.140625 -0.078125 C 5.078125 -0.140625 5.035156 -0.1875 5.015625 -0.21875 L 2.5625 -3.0625 L 2.5625 -0.28125 C 2.5625 -0.195312 2.535156 -0.128906 2.484375 -0.078125 C 2.429688 -0.0234375 2.363281 0 2.28125 0 Z M 1.09375 0 "/></g></g></g><g fill="#37545b" fill-opacity="1"><g transform="translate(134.725622, 150.663374)"><g><path d="M 3.125 0 C 3.039062 0 2.972656 -0.0234375 2.921875 -0.078125 C 2.867188 -0.128906 2.84375 -0.195312 2.84375 -0.28125 L 2.84375 -2.71875 L 0.25 -7.421875 C 0.238281 -7.441406 0.226562 -7.460938 0.21875 -7.484375 C 0.21875 -7.503906 0.21875 -7.523438 0.21875 -7.546875 C 0.21875 -7.597656 0.238281 -7.648438 0.28125 -7.703125 C 0.332031 -7.753906 0.382812 -7.78125 0.4375 -7.78125 L 1.640625 -7.78125 C 1.734375 -7.78125 1.804688 -7.753906 1.859375 -7.703125 C 1.921875 -7.648438 1.960938 -7.597656 1.984375 -7.546875 L 3.734375 -4.5 L 5.484375 -7.546875 C 5.503906 -7.597656 5.539062 -7.648438 5.59375 -7.703125 C 5.65625 -7.753906 5.738281 -7.78125 5.84375 -7.78125 L 7.015625 -7.78125 C 7.085938 -7.78125 7.144531 -7.753906 7.1875 -7.703125 C 7.226562 -7.648438 7.25 -7.597656 7.25 -7.546875 C 7.25 -7.523438 7.25 -7.503906 7.25 -7.484375 C 7.25 -7.460938 7.238281 -7.441406 7.21875 -7.421875 L 4.625 -2.71875 L 4.625 -0.28125 C 4.625 -0.195312 4.597656 -0.128906 4.546875 -0.078125 C 4.492188 -0.0234375 4.425781 0 4.34375 0 Z M 3.125 0 "/></g></g></g></svg>